<?xml version="1.0" encoding="UTF-8" standalone="no"?>
<!-- Created with Inkscape (http://www.inkscape.org/) -->

<svg
   width="126.4264mm"
   height="272.57751mm"
   version="1.1"
   viewBox="0 0 126.4264 272.57751"
   id="svg1"
   sodipodi:docname="jellyfinpotion.svg"
   inkscape:export-filename="jellyfinpotion.webp"
   inkscape:export-xdpi="96"
   inkscape:export-ydpi="96"
   xmlns:inkscape="http://www.inkscape.org/namespaces/inkscape"
   xmlns:sodipodi="http://sodipodi.sourceforge.net/DTD/sodipodi-0.dtd"
   xmlns="http://www.w3.org/2000/svg"
   xmlns:svg="http://www.w3.org/2000/svg">
  <defs
     id="defs1" />
  <sodipodi:namedview
     id="namedview1"
     pagecolor="#ffffff"
     bordercolor="#000000"
     borderopacity="0.25"
     inkscape:showpageshadow="2"
     inkscape:pageopacity="0.0"
     inkscape:pagecheckerboard="0"
     inkscape:deskcolor="#d1d1d1"
     inkscape:document-units="mm" />
  <path
     d="m 61.978748,272.37708 c -4.3601,-0.72517 -7.8652,-3.9341 -8.9821,-8.2232 -1.4012,-5.3811 0.65598,-11.572 5.4105,-16.282 3.5411,-3.5082 7.643,-6.009 16.007,-9.759 1.0186,-0.4567 2.0307,-0.94954 2.249,-1.0951 0.21828,-0.14562 0.96242,-0.63074 1.6536,-1.078 0.69123,-0.44728 1.2568,-0.96316 1.2568,-1.1464 0,-0.18324 0.23813,-0.54867 0.52917,-0.81206 0.29104,-0.2634 0.52917,-0.55626 0.52917,-0.65083 0,-0.0946 -1.014,-0.29757 -2.2534,-0.45114 -2.4747,-0.3066 -3.1228,-0.6809 -3.7513,-2.1666 -1.0501,-2.4823 1.5819,-5.3161 4.6646,-5.0221 0.87596,0.0836 1.0754,0.019 1.0754,-0.34719 0,-0.74805 -1.7529,-2.811 -5.7,-6.708 -3.9669,-3.9166 -5.3714,-5.7931 -7.3818,-9.8628 -1.8898,-3.8255 -2.3445,-6.0088 -2.2991,-11.039 0.0209,-2.3283 0.15222,-4.8286 0.29152,-5.5562 0.13933,-0.7276 0.25165,-1.6206 0.24964,-1.9844 -0.003,-0.36381 0.11932,-1.3163 0.26969,-2.1167 0.73173,-3.8954 0.70188,-1.2904 0.42084,-36.74 l -0.22516,-28.406 -0.57777,-0.56575 c -0.31779,-0.31116 -0.91641,-1.0237 -1.3303,-1.5834 l -0.75256,-1.0177 -0.54446,0.75032 c -0.29948,0.41268 -1.0515,1.3222 -1.6712,2.0212 l -1.1267,1.2709 0.0953,29.953 c 0.0598,18.811 0.19624,30.543 0.36672,31.54 1.2012,7.025 1.0962,15.266 -0.22839,17.922 -0.12602,0.2527 -0.22913,0.75168 -0.22913,1.1089 0,0.35719 -0.11906,0.72303 -0.26459,0.81296 -0.14552,0.0899 -0.26458,0.38394 -0.26458,0.65331 0,0.95888 -1.5632,3.7917 -2.5339,4.5918 -0.74307,0.61248 -1.3099,0.83029 -2.3952,0.92027 -1.3659,0.11327 -1.4574,0.079 -2.3296,-0.8732 -1.2827,-1.4004 -1.4047,-2.4935 -0.57215,-5.129 0.3708,-1.1738 0.78454,-2.3455 0.91942,-2.6039 0.75862,-1.4531 1.716,-7.0101 1.5261,-8.8578 -0.07923,-0.77082 -0.22212,-2.2349 -0.31754,-3.2536 -0.09542,-1.0186 -0.28006,-1.9652 -0.41032,-2.1034 -0.13026,-0.13824 -0.23684,-0.70379 -0.23684,-1.2568 0,-0.55301 -0.06372,-1.0054 -0.1416,-1.0054 -0.48156,0 -1.4462,0.94585 -1.4476,1.4195 -0.0011,0.3107 -0.2383,0.92207 -0.52742,1.3586 -0.28912,0.43656 -0.52646,1.2402 -0.52742,1.7859 -0.0013,0.70477 -0.1167,0.99219 -0.39862,0.99219 -0.26083,0 -0.39688,0.26098 -0.39688,0.76136 0,0.41873 -0.18625,0.91591 -0.41388,1.1048 -0.25426,0.211 -0.35703,0.56999 -0.26646,0.93083 0.0957,0.38132 0.0089,0.64055 -0.24758,0.73895 -0.22768,0.0874 -0.39499,0.48469 -0.39499,0.938 0,0.43254 -0.0983,0.8472 -0.21845,0.92147 -0.12015,0.0742 -0.59936,0.88495 -1.0649,1.8016 -0.95636,1.8829 -1.9089,2.5926 -3.48,2.5926 -0.86557,0 -1.1566,-0.16399 -1.9629,-1.106 -0.88342,-1.0321 -0.94666,-1.2254 -0.94666,-2.8948 0,-0.98385 0.11906,-1.8624 0.26458,-1.9524 0.14552,-0.0899 0.26458,-0.57483 0.26458,-1.0775 0,-0.50267 0.10488,-1.1208 0.23306,-1.3734 0.82326,-1.6229 1.3544,-2.9731 1.3544,-3.4429 0,-0.29935 0.10381,-0.58396 0.23068,-0.63248 0.12687,-0.0485 0.58963,-0.92163 1.0283,-1.9403 0.43872,-1.0186 1.6962,-3.7571 2.7943,-6.0854 1.8013,-3.8192 4.1486,-10.528 4.1487,-11.857 1.8e-5,-0.26424 0.14812,-0.74049 0.32912,-1.0583 0.181,-0.31787 0.34789,-0.93511 0.37087,-1.3717 0.02299,-0.43656 0.22935,-1.6739 0.45859,-2.7496 0.22924,-1.0757 0.41566,-2.2068 0.41427,-2.5135 -0.0013,-0.30674 0.1109,-1.6888 0.24954,-3.0713 0.13865,-1.3824 0.26606,-9.1012 0.28315,-17.153 l 0.03107,-14.639 -0.60527,0.18861 c -1.3622,0.42448 -1.8162,0.65677 -1.9463,0.99578 -0.07526,0.19613 -0.24771,5.8236 -0.38322,12.506 -0.24793,12.226 -0.37567,14.584 -0.81495,15.046 -0.13141,0.13825 -0.23893,0.57771 -0.23893,0.97658 0,0.39887 -0.11906,0.7988 -0.26458,0.88874 -0.14552,0.0899 -0.26458,0.55863 -0.26458,1.0416 0,0.48291 -0.18128,1.0285 -0.40285,1.2124 -0.22664,0.1881 -0.33645,0.54354 -0.25105,0.81261 0.09185,0.28937 -0.06255,0.69265 -0.3909,1.021 -0.29848,0.29848 -0.5427,0.82429 -0.5427,1.1685 0,0.34419 -0.23812,0.92853 -0.52917,1.2985 -0.29104,0.36999 -0.52917,0.89802 -0.52917,1.1734 0,0.27538 -0.1035,0.61378 -0.23,0.75203 -0.43018,0.47011 -6.9401,13.153 -7.7433,15.085 -0.23797,0.57261 -0.61292,1.5174 -0.83322,2.0994 -0.22031,0.58209 -0.65069,1.6993 -0.9564,2.4827 -0.30571,0.78337 -0.55584,1.6395 -0.55584,1.9026 0,0.2631 -0.12132,0.55327 -0.2696,0.64489 -0.27886,0.17235 -0.29518,0.41807 -0.30732,4.6271 -0.01082,3.7476 0.50715,5.9633 2.1648,9.2604 2.1554,4.2872 4.0521,6.3239 12.992,13.951 6.1664,5.2609 9.9112,10.274 10.943,14.65 0.62855,2.6666 0.53121,5.3032 -0.27186,7.3618 -1.702,4.3632 -3.3166,6.1387 -7.0567,7.7598 -2.1319,0.92405 -2.4677,0.99218 -4.8907,0.99218 -1.7509,0 -2.7723,-0.11686 -3.1236,-0.35739 -0.28704,-0.19656 -0.86759,-0.44157 -1.2901,-0.54441 -1.6999,-0.41378 -4.4876,-2.7063 -5.8205,-4.7867 -1.3695,-2.1376 -1.8462,-4.4071 -1.6583,-7.8952 0.211,-3.9164 0.98286,-6.5716 3.1834,-10.951 0.6749,-1.3432 1.2271,-2.6724 1.2271,-2.9538 0,-0.313 -0.66774,-1.043 -1.7198,-1.8802 -0.94588,-0.75267 -1.7198,-1.4513 -1.7198,-1.5524 0,-0.10117 -1.0223,-1.3708 -2.2718,-2.8215 -2.3439,-2.7213 -5.0595,-6.6345 -5.4107,-7.7969 -0.10992,-0.3638 -0.44779,-1.1972 -0.75081,-1.8521 -0.30302,-0.65485 -0.55357,-1.5035 -0.55676,-1.8858 -0.0032,-0.38237 -0.17233,-0.83341 -0.37586,-1.0024 -0.55462,-0.46027 -0.73323,-2.022 -0.86491,-7.5629 -0.12958,-5.4522 -0.15749,-5.2731 1.5878,-10.186 0.43939,-1.2369 1.016,-2.565 1.2813,-2.9513 0.44122,-0.64228 0.65304,-1.5466 0.36225,-1.5466 -0.14588,0 -3.1698,2.2502 -4.2853,3.1889 -0.44143,0.37145 -0.88234,0.99309 -0.9798,1.3814 -0.09747,0.38832 -0.41393,0.83274 -0.70326,0.98758 -0.28932,0.15486 -0.52604,0.47448 -0.52604,0.71027 0,0.58116 -1.1422,2.0985 -2.5759,3.4218 -4.5607,4.2096 -11.995,3.686 -16.083,-1.1327 -1.5769,-1.8588 -2.6936,-3.8234 -3.1345,-5.5145 -0.15175,-0.58208 -0.26969,-2.3756 -0.26209,-3.9855 0.01678,-3.5582 0.6272,-5.8201 2.2281,-8.2562 2.4401,-3.7131 4.8958,-5.6934 10.567,-8.5219 5.665,-2.8252 8.3443,-5.0287 10.981,-9.0312 2.621,-3.9784 3.8117,-7.3159 5.0398,-14.126 0.29875,-1.6567 0.14539,-16.087 -0.17429,-16.401 -0.1861,-0.18233 -0.43556,-0.0702 -0.77916,0.35029 -0.78389,0.95925 -4.1784,3.4024 -5.9393,4.2747 -3.5879,1.7774 -7.9241,2.171 -11.897,1.0799 -4.2092,-1.156 -6.5431,-2.9322 -9.3329,-7.1031 -3.55910002,-5.3209 -4.02050002,-10.356 -1.9268,-21.023999 1.2495,-6.3667 3.1338,-12.301 5.3919,-16.98 2.2113,-4.5825 3.6175,-6.918 7.2224,-11.995 6.2344,-8.7806 15.627,-16.341 25.094,-20.201 1.1642,-0.47462 2.2655,-0.97533 2.4474,-1.1127 0.233,-0.17595 0.33073,-1.2077 0.33073,-3.4916 v -3.2418 l -0.82682,-0.16536 c -0.45475,-0.09095 -1.3039,-0.16536 -1.887,-0.16536 -1.8243,0 -3.8214,-1.6509 -4.5592,-3.769 -0.26824,-0.77001 -0.3934,-2.2209 -0.39604,-4.5905 l -0.0039,-3.4647 1.0104,-1.5633 c 0.64147,-0.99247 1.5486,-1.934 2.4844,-2.5785 1.3874,-0.95557 1.604,-1.0192 3.686,-1.0831 1.2166,-0.03733 2.195,-0.14803 2.1742,-0.24599 -0.02074,-0.09797 -0.1171,-0.6222 -0.21415,-1.165 -0.09704,-0.54277 -0.38982,-1.6417 -0.65061,-2.4421 -0.26079,-0.80036 -0.73851,-2.2886 -1.0616,-3.3073 -0.32309,-1.0187 -0.69795,-2.0588 -0.83304,-2.3115 -0.13509,-0.25269 -0.24735,-0.72894 -0.24946,-1.0583 -0.0021,-0.3294 -0.17834,-1.0997 -0.3916,-1.7118 -0.88318,-2.5349999 0.4065,-7.0073999 2.5893,-8.9794999 1.419,-1.282 3.5274,-2.20360003 5.744,-2.51080003 1.0538,-0.14603 7.9093,-0.221 16.066,-0.17569 14.151,0.0786 14.236,0.08234 15.737,0.68849 2.2141,0.89452003 3.9771,2.60900003 5.168,5.02600003 0.92985,1.8872 0.99372,2.1703 0.95623,4.2395 -0.022,1.2194999 -0.17092,2.3480999 -0.33073,2.5078999 -0.15981,0.15981 -0.29435,0.53464 -0.29898,0.83296 -0.004,0.29832 -0.17063,0.75629 -0.36888,1.0177 -0.19828,0.26143 -0.30316,0.69447 -0.23312,0.96233 0.07,0.26785 -0.003,0.567 -0.16029,0.66478 -0.15819,0.09777 -0.28837,0.3791 -0.28927,0.62517 0,0.24607 -0.17946,0.78844 -0.39687,1.2053 -0.21738,0.41681 -0.39524,1.0349 -0.39524,1.3734 0,0.33858 -0.11906,0.68918 -0.26458,0.77912 -0.14552,0.08994 -0.26503,0.42438 -0.26556,0.74322 0,0.31883 -0.24384,0.978 -0.54062,1.4648 -0.76441,1.2538 -0.41178,1.5199 2.2649,1.7088 2.1696,0.15311 2.3021,0.2005 3.5846,1.2819 0.73245,0.61761 1.7428,1.6951 2.2452,2.3945 l 0.91352,1.2716 v 3.9163 c 0,3.8606 -0.0108,3.9331 -0.75819,5.0926 -1.4474,2.2455 -3.3392,3.4252 -5.4928,3.4252 h -0.89279 v 7.0758 l 2.8443,1.2638 c 2.9018,1.2894 4.8961,2.3666 9.1943,4.9664 1.9041,1.1517 7.007602,5.2091 9.217702,7.3282 4.0584,3.8914 6.0835,6.4461 10.28,12.968 2.5107,3.9023 5.6541,10.645 7.031,15.081 1.1372,3.6641 1.4173,4.7588 2.2006,8.599 0.89607,4.393299 1.3706,11.793999 0.82815,12.915999 -0.15367,0.31784 -0.35261,1.1028 -0.4421,1.7444 -0.0895,0.64156 -0.3257,1.475 -0.5249,1.8521 -0.19921,0.37709 -0.55084,1.2214 -0.7814,1.8762 -0.61698,1.7524 -2.2844,4.1617 -4.0601,5.8666 -5.0639,4.8619 -12.645,5.7852 -19.604,2.3877 -0.819442,-0.40006 -2.169102,-1.4589 -3.217902,-2.5245 -2.8192,-2.8643 -2.7225,-3.1275 -2.5883,7.0385 0.083,6.2853 0.20465,8.7397 0.4623,9.3245 0.19236,0.43656 0.44416,1.3295 0.5596,1.9844 0.3815,2.1641 0.5493,2.756 1.4698,5.1844 1.2829,3.3842 2.914502,6.0349 5.230102,8.4963 2.5469,2.7074 3.9808,3.6794 8.2639,5.6017 4.1823,1.8771 6.0959,3.1349 8.161,5.3645 3.5099,3.7894 4.7089,6.689 4.7445,11.474 0.0185,2.4878 -0.0544,3.0654 -0.44085,3.493 -0.25466,0.28178 -0.46302,0.87464 -0.46302,1.3174 0,1.5203 -3.0677,5.5712 -5.353,7.0685 -1.0358,0.67874 -3.6409,1.4077 -5.7142,1.5991 -2.017,0.18619 -3.8425,-0.16602 -5.8662,-1.1319 -1.4964,-0.71419 -3.7966,-3.1991 -5.0129,-5.4152 -0.85011,-1.549 -1.492102,-2.3325 -2.620602,-3.1986 -1.5044,-1.1545 -2.9753,-2.0178 -3.4378,-2.0178 -0.13726,0 0.14925,0.80367 0.63675,1.7859 1.3588,2.7379 2.5785,8.462 2.9176,13.692 0.22836,3.5223 -0.0819,4.6632 -1.5286,5.6205 -1.9304,1.2775 -4.107,0.77528 -5.196,-1.1988 -0.54155,-0.98176 -0.63831,-1.577 -0.73081,-4.4964 -0.10332,-3.2613 -0.23664,-4.1146 -1.0481,-6.7077 -0.21104,-0.67437 -0.3837,-1.4265 -0.3837,-1.6714 0,-0.2449 -0.76219,-2.3125 -1.6938,-4.5947 -1.6222,-3.9743 -2.854,-6.618 -5.5081,-11.822 -2.2659,-4.443 -3.8148,-8.042 -4.4408,-10.319 -0.12007,-0.43656 -0.40767,-1.4486 -0.63918,-2.249 -1.0459,-3.6161 -1.2151,-5.7507 -1.3896,-17.531 -0.11613,-7.838 -0.26472,-11.655 -0.45993,-11.814 -0.15862,-0.12988 -0.64558,-0.27748 -1.0821,-0.32798 l -0.79375,-0.0918 -0.0762,15.478 c -0.0888,18.034 0.0998,21.089 1.7069,27.649 1.053,4.2983 3.5219,10.621 5.782,14.807 1.0382,1.9228 1.8216,3.7351 3.7216,8.6089 1.5835,4.0619 3.0961,7.1725 4.5032,9.2604 1.5712,2.3315 8.3311,8.8125 10.821002,10.374 1.1083,0.69525 5.2251,4.8602 7.468,7.5553 2.8641,3.4416 6.6169,10.936 7.7442,15.466 0.99785,4.0092 0.62675,8.5233 -0.97189,11.823 -0.65625,1.3544 -3.5303,4.5238 -4.1022,4.5238 -0.14674,0 -0.58283,0.22029 -0.96909,0.48956 -2.5521,1.779 -7.9488,1.84 -11.563002,0.1307 -1.863,-0.88103 -3.0804,-1.9526 -4.3097,-3.7937 -1.6109,-2.4123 -2.2574,-4.6474 -2.22,-7.6745 0.036,-2.9136 0.45034,-4.3692 2.5608,-8.9958 2.115,-4.6367 2.7931,-7.1731 2.7893,-10.434 l -0.003,-1.605 -2.9711,-2.6458 c -3.9742,-3.5391 -8.6577,-8.3092 -10.391,-10.583 -1.8583,-2.4379 -5.684,-9.9608 -5.684,-11.177 0,-0.18664 -0.10959,-0.54608 -0.24355,-0.79878 -0.13393,-0.25268 -0.56132,-1.2929 -0.94972,-2.3115 -1.4008,-3.674 -2.4445,-5.5962 -2.8295,-5.2112 -0.38031,0.38032 -1.2031,6.4726 -1.2471,9.2343 -0.0941,5.9024 2.0223,10.116 8.0838,16.094 6.4993,6.4099 8.132,9.2899 8.4795,14.957 0.31506,5.1386 -1.1208,9.1251 -4.5212,12.552 -1.9677,1.9831 -3.852,3.0716 -8.462,4.8882 -2.3822,0.93869 -5.7197,2.6173 -5.7161,2.8749 0.003,0.0952 0.63913,1.4906 1.4173,3.1007 3.6861,7.627 4.0148,12.109 1.1949,16.29 -1.0137,1.5031 -3.2608,3.404 -4.024,3.404 -0.22685,0 -0.80621,0.22463 -1.2875,0.49919 -1.1692,0.66704 -3.1188,0.83341 -5.373,0.45852 z m 3.4472,-7.8416 c 1.2366,-0.76422 1.8119,-2.1275 1.6323,-3.8676 -0.18085,-1.752 -2.7757,-7.5552 -3.3292,-7.4454 -0.20238,0.0401 -0.94128,0.90641 -1.642,1.925 -2.8545,4.1496 -2.8434,7.6644 0.0303,9.604 1.045,0.7053 1.9092,0.64886 3.3086,-0.21601 z m 40.502002,-18.053 c 0.72493,-0.48739 1.6262,-1.424 2.0804,-2.1621 1.0862,-1.7649 1.0944,-3.8616 0.0275,-7.0322 -0.76121,-2.2621 -3.058,-7.1024 -4.3148,-9.0935 l -0.67596,-1.0708 -0.61182,2.3702 c -0.70673,2.7378 -1.6269,5.433 -1.979,5.7965 -0.1339,0.13825 -0.24347,0.47789 -0.24347,0.75475 0,0.27689 -0.285192,1.0568 -0.633752,1.733 -2.0577,3.9924 -1.446,6.8561 1.949402,9.1265 1.1135,0.74459 2.9242,0.57079 4.4014,-0.42243 z m -54.247002,-8.0016 c 1.2111,-0.92374 1.874,-2.0204 2.2577,-3.7351 0.25534,-1.141 0.23224,-1.5915 -0.14264,-2.7829 -0.4453,-1.4152 -3.0641,-5.3665 -4.9539,-7.4747 -0.86996,-0.9705 -1.0216,-1.0469 -1.3771,-0.69374 -0.2197,0.21828 -1.0623,2.0542 -1.8725,4.0799 -1.2347,3.087 -1.4731,3.9492 -1.4731,5.3276 0,2.3759 0.98479,4.1829 2.9219,5.3614 1.7661,1.0744 3.1551,1.0498 4.6396,-0.0825 z m -34.923,-56.557 c 0.93241,-0.62992 1.4977,-1.2958 2.1138,-2.4901 1.7646,-3.4206 4.1653,-5.5489 8.9763,-7.9581 3.6509,-1.8282 5.3656,-2.9601 7.4783,-4.9363 1.6955,-1.586 4.1392,-4.9874 4.962,-6.9066 1.3407,-3.1272 2.1466,-5.87 2.4294,-8.2682 0.07293,-0.61847 0.22801,-1.1245 0.34463,-1.1245 0.11662,0 0.21553,-0.89113 0.2198,-1.9803 0.0043,-1.0892 0.08504,-2.1053 0.17948,-2.2581 0.09444,-0.15281 0.08563,-4.3627 -0.01958,-9.3553 l -0.19129,-9.0775 -2.2774,-0.57333 c -1.2526,-0.31533 -2.3667,-0.57213 -2.4758,-0.57067 -0.10914,0.002 -0.19844,2.6745 -0.19844,5.9402 0,3.6729 -0.10091,5.9999 -0.26458,6.101 -0.14552,0.0899 -0.26458,0.86384 -0.26458,1.7198 0,0.85596 -0.11906,1.6299 -0.26458,1.7198 -0.14552,0.0899 -0.26458,0.72905 -0.26458,1.4203 0,0.6954 -0.17351,1.4861 -0.38846,1.7703 -0.21365,0.28247 -0.39224,0.93358 -0.39688,1.4469 -0.0046,0.51333 -0.17717,1.1742 -0.38343,1.4687 -0.20626,0.29447 -0.45684,0.97156 -0.55684,1.5046 -0.10001,0.53309 -0.34797,1.1071 -0.55103,1.2756 -0.20306,0.16853 -0.3692,0.46036 -0.3692,0.64852 0,0.18816 -0.41478,1.0963 -0.92173,2.0181 -0.50696,0.92181 -1.169,2.1319 -1.4713,2.6892 -0.65343,1.2047 -4.8119,5.4218 -6.8674,6.9643 -0.80036,0.6006 -3.4793,2.139 -5.9531,3.4186 -6.1318,3.1717 -7.3856,4.152 -8.6994,6.8018 -1.2324,2.4857 -1.3587,4.3784 -0.44498,6.673 1.0725,2.6936 4.0687,3.5749 6.5209,1.9182 z m 96.727002,0.36261 c 1.4372,-0.62344 2.2062,-1.4465 2.725,-2.917 0.82063,-2.3259 0.26684,-4.8584 -1.5967,-7.3017 -1.1144,-1.461 -3.9332,-3.3804 -7.7871,-5.3022 -4.4946,-2.2414 -6.1756,-3.4315 -9.001702,-6.3733 -2.9054,-3.0243 -6.5348,-8.5163 -7.1464,-10.814 -0.11621,-0.43656 -0.57645,-1.8387 -1.0228,-3.1158 -0.72789,-2.0828 -1.1002,-3.6711 -1.5335,-6.5415 -0.0769,-0.50932 -0.19032,-3.6942 -0.25204,-7.0776 -0.0618,-3.3834 -0.18892,-6.1516 -0.2826,-6.1516 -0.43339,0 -3.9304,1.2081 -4.0737,1.4073 -0.0889,0.12358 -0.22194,3.9949 -0.2956,8.603 -0.10112,6.3246 -0.0508,8.7025 0.20545,9.7012 0.18667,0.7276 0.28012,1.6291 0.20765,2.0033 -0.16158,0.83433 0.81798,6.4353 1.4759,8.4389 0.78189,2.3811 1.6202,4.2439 2.9102,6.4667 1.8702,3.2224 4.8513,5.5674 11.878,9.3434 1.265502,0.68004 2.939602,1.7785 3.720302,2.441 1.3908,1.1803 4.0048,4.4362 4.5864,5.7126 0.32054,0.70352 2.605,1.9743 3.5491,1.9743 0.32319,0 1.1035,-0.22378 1.734,-0.49728 z m -61.163002,-62.894 c 1.631,-0.63216 2.318,-1.0989 3.8579,-2.6215 1.7958,-1.7755 4.0796,-5.1779 4.0796,-6.0778 0,-0.23589 0.29223,-0.72113 0.64942,-1.0783 0.57351,-0.5735 0.88032,-0.64943 2.6242,-0.64943 2.3228,0 2.8118,0.14398 2.8118,0.82786 0,0.86759 1.4959,3.8558 2.7389,5.4711 2.2067,2.8678 4.9796,4.3893 8.9015,4.8843 6.1551,0.77691 11.346,-2.0337 13.855,-7.5022 0.56176,-1.2243 1.1613,-2.5236 1.3323,-2.8874 0.29432,-0.62609 0.44156,-0.66553 2.7534,-0.73759 1.8219,-0.0568 2.4643,0.0104 2.5285,0.26458 1.735202,6.8688 5.155402,10.263 10.342002,10.263 2.5601,0 4.5287,-0.75023 6.3598,-2.4238 2.3004,-2.1024 4.1048,-6.2401 4.1048,-9.4127 0,-1.6186 -1.1557,-8.502999 -1.8772,-11.181999 -0.72435,-2.6898 -2.768,-8.4265 -3.8557,-10.823 -1.5192,-3.3476 -4.4119,-8.3059 -5.5076,-9.4406 -0.29339,-0.30381 -1.0097,-1.2455 -1.5918,-2.0926 -2.8634,-4.1672 -7.408302,-8.7114 -11.642002,-11.64 -1.0186,-0.70469 -2.2688,-1.6043 -2.7781,-1.999 -1.1344,-0.87933 -9.1717,-5.0042 -11.106,-5.6996 -0.77253,-0.2778 -1.9082,-0.94841 -2.5238,-1.4902 l -1.1192,-0.98514 0.0517,-8.2757 c 0.0285,-4.5516 0.14843,-8.4932 0.26664,-8.759 0.33296,-0.74881 1.1988,-0.94017 3.5305,-0.78035 l 2.1472,0.14717 0.93667,-0.93666 c 0.96724,-0.96725 1.1703,-1.7084 0.61915,-2.2596 -0.2418,-0.2418 -5.5081,-0.3175 -22.088,-0.3175 h -21.77 l -0.16038,0.63903 c -0.09308,0.37086 0.02849,1.0371 0.28969,1.5875 l 0.45007,0.94847 h 3.0329 c 2.9994,0 3.0415,0.0085 3.8063,0.7734 l 0.7734,0.7734 v 7.5279 c 0,4.1403 -0.07676,7.9117 -0.17058,8.3808 -0.20603,1.0301 -1.6855,2.189 -3.6481,2.8576 -2.6889,0.91601 -10.103,4.7745 -12.321,6.412 -3.7545,2.7722 -8.0554,6.6128 -10.951,9.7788 -1.6961,1.8547 -4.4946,5.7043 -5.4856,7.5458 -0.23592,0.43842 -1.2345,2.2231 -2.219,3.9661 -0.98454,1.7429 -2.0634,3.9456 -2.3974,4.8948 -1.354,3.8478 -1.914,5.3338 -2.0684,5.4882 -0.08929,0.0893 -0.16234,0.47693 -0.16234,0.86142 0,0.3845 -0.17481,0.9302 -0.38846,1.2127 -0.21365,0.28247 -0.39224,0.89351 -0.39688,1.3579 -0.0046,0.46435 -0.12748,0.91786 -0.273,1.0078 -0.14552,0.0899 -0.26458,0.55337 -0.26458,1.0298 0,0.47643 -0.08773,0.95406 -0.19496,1.0613 -0.10723,0.10722 -0.22005,0.57355 -0.25073,1.036299 -0.03067,0.46273 -0.25699,2.3292 -0.50292,4.1478 -0.41007,3.0322 -0.413,3.4991 -0.03534,5.6298 0.4614,2.6031 1.5502,5.1693 2.7945,6.5865 0.45661,0.52005 1.6524,1.3776 2.6574,1.9057 1.745,0.91699 1.9455,0.96015 4.4588,0.96015 2.9062,0 3.7134,-0.28442 6.0076,-2.1167 1.5015,-1.1992 3.851,-5.1304 3.851,-6.4436 0,-1.4852 0.91531,-2.023 3.4429,-2.023 2.1676,0 2.4445,0.13611 2.7318,1.3429 0.30558,1.2836 2.5931,4.9724 3.9185,6.3188 1.4004,1.4226 3.1192,2.4294 5.5172,3.2317 2.3151,0.7745 6.903,0.54986 9.525,-0.46638 z m 10.381,-29.013999 c -1.2145,-0.84384 -2.0123,-2.582 -1.8492,-4.0288 0.2467,-2.1887 1.903,-3.5779 4.2656,-3.5779 2.0692,0 3.8718,2.013 3.8718,4.3239 0,1.0237 -0.15661,1.3493 -1.2152,2.5267 -1.1903,1.3239 -1.2458,1.3515 -2.7157,1.3515 -1.1259,0 -1.7145,-0.14864 -2.3573,-0.59531 z m -31.812,0.1639 c -4.0785,-1.2851 -7.6566,-5.8754 -7.8103,-10.02 -0.07198,-1.9419 0.25664,-3.4743 1.1915,-5.5562 1.903,-4.238 7.2738,-6.4336 11.984,-4.8991 4.4087,1.4362 7.8638,5.8577 7.8638,10.063 0,2.8141 -1.8714,6.4021 -4.3392,8.3196 -2.0952,1.628 -3.8696,2.249 -6.3764,2.2317 -1.1642,-0.008 -2.2953,-0.0709 -2.5135,-0.13966 z m 4.4511,-7.8552 c 0.73544,-0.58175 1.4199,-2.3434 1.254,-3.2276 -0.28023,-1.4937 -2.5005,-3.2424 -3.6678,-2.8888 -0.9063,0.27455 -1.7205,1.1517 -2.1759,2.344 -0.35496,0.92946 -0.36572,1.2444 -0.07281,2.1333 0.48502,1.4718 1.7719,2.3029 3.2233,2.0818 0.59901,-0.0912 1.2466,-0.29049 1.4392,-0.44279 z m 52.402,-6.3666 c -0.99322,-0.68968 -1.8202,-2.2749 -1.8202,-3.4893 0,-0.95703 0.61677,-2.0203 1.7482,-3.0137 0.92051,-0.80822 1.08,-0.85467 2.5654,-0.74722 1.4186,0.10261 1.6765,0.21567 2.4716,1.0832 0.81343,0.88759 0.8877,1.11 0.8877,2.6583 0,1.5811 -0.0646,1.7624 -1.0048,2.822 -0.91043,1.0259 -1.1404,1.1426 -2.4474,1.2421 -1.2171,0.09264 -1.5923,0.0058 -2.4005,-0.5554 z m -23.119,-7.5239 c -1.7898,-1.15 -2.7781,-2.7678 -2.7781,-4.5476 0,-0.3667 0.41079,-1.2767 0.91289,-2.0223 2.1842,-3.2434 6.1864,-3.2872 7.9283,-0.08678 1.1753,2.1594 0.76327,4.3832 -1.1486,6.1997 -0.69636,0.66159 -1.0756,0.79573 -2.4716,0.87426 -1.2892,0.07252 -1.8223,-0.01855 -2.4428,-0.41725 z m 10.761,-46.533 c 0.26567,-0.69951 0.48313,-1.5327 0.48327,-1.8515 10e-5,-0.31884 0.11927,-0.65328 0.26479,-0.74322 0.14552,-0.08994 0.26458,-0.45577 0.26458,-0.81296 0,-0.35719 0.10737,-0.85618 0.23861,-1.1089 0.51609,-0.9937 2.1426,-6.4842 2.1426,-7.2326 0,-1.1156999 -0.66656,-2.2755999 -1.5788,-2.7473999 -1.113,-0.57555 -27.159,-0.60463 -28.267,-0.03157 -1.5651,0.80936 -1.7098,1.1963 -1.361,3.6398999 0.17335,1.2144 0.58517,3.0415 0.91515,4.0601 0.32998,1.0186 1.0538,3.3251 1.6085,5.1255 l 1.0085,3.2734 23.798,-0.29894 z m -7.5675,-3.3536 c -0.83412,-0.78669 -0.94488,-1.0434 -0.94488,-2.1901 0,-1.4783 0.4018,-2.1896 1.6847,-2.9825 1.4608,-0.90284 2.6852,-0.69336 4.199,0.71843 0.96419,0.89916 1.1728,2.1136 0.57827,3.3664 -0.61151,1.2887 -1.7713,1.9766 -3.3342,1.9779 -1.0428,7.93e-4 -1.3868,-0.13945 -2.1828,-0.89015 z m -48.041,235.419999 c -3.6416,-0.96737 -6.4722,-3.2262 -8.2582,-6.5901 l -1.1238,-2.1167 -0.10088,-3.6139 c -0.0962,-3.4461 -0.06155,-3.7462 0.7461,-6.463 0.97454,-3.2782 2.2089,-6.0599 4.2808,-9.6466 1.8024,-3.1204 5.964,-8.8915 7.1842,-9.9628 1.6981,-1.491 4.6339,-1.3558 5.5195,0.25421 0.17927,0.32591 0.41143,1.6641 0.51591,2.9738 0.32167,4.0324 1.8531,9.4943 3.673,13.099 2.6015,5.1534 3.4021,9.5357 2.4407,13.359 -1.0852,4.3155 -5.0674,7.8369 -9.9058,8.7597 -2.3607,0.45019 -3.1075,0.44225 -4.9715,-0.0529 z m 4.5246,-7.292 c 1.423,-0.48268 2.1911,-1.143 2.8393,-2.4409 0.75994,-1.5216 0.87449,-4.5402 0.20839,-5.4912 -0.23571,-0.33652 -0.42856,-0.8251 -0.42856,-1.0857 0,-0.2606 -0.11541,-0.68061 -0.25647,-0.93332 -1.1282,-2.0211 -3.7091,-8.3667 -3.7111,-9.1245 -0.003,-1.1266 -0.77813,-0.26485 -1.9039,2.1167 -1.9025,4.0247 -2.5952,5.652 -2.5952,6.0966 0,0.22561 -0.19507,0.62576 -0.43349,0.88921 -0.31184,0.34459 -0.46976,1.1723 -0.56271,2.9496 -0.10836,2.0717 -0.04514,2.6598 0.39164,3.6429 1.3769,3.0991 3.6976,4.3151 6.4521,3.3808 z"
     stroke-width="0.26458"
     id="path1"
     inkscape:export-filename="jellyfinpotion.webp"
     inkscape:export-xdpi="96"
     inkscape:export-ydpi="96" />
</svg>
